<svg fill="none" height="18" viewBox="0 0 86 18" width="86" xmlns="http://www.w3.org/2000/svg"><g fill="#1f1c37"><path d="m30.7146 4.23525v-.40724c0-.81448.5265-1.38462 1.5795-1.38462h1.0531v-2.280548h-1.3163c-2.2817 0-3.7735 1.303168-3.7735 3.339378v.73303h-1.8428v1.87331h1.7551v7.73754h2.5449v-7.73754h2.7204v-1.87331z"/><path d="m34.6631 4.23526v9.61084h2.5449v-9.61084z"/><path d="m46.5979 4.96834c-.3511-.32579-.7898-.57013-1.2286-.81448-.4388-.08145-.9653-.16289-1.4918-.16289-1.4041 0-2.4572.65158-2.896 1.38461h-.1755v-1.14027h-2.4571v9.61089h2.5449v-5.45703c0-1.22173.8775-2.11766 2.1061-2.11766 1.1408 0 2.0184.81449 2.0184 1.95476v5.70133h2.5449v-6.35292c0-.48868-.0878-.89593-.2633-1.38461-.0878-.48869-.351-.81449-.702-1.22173z"/><path d="m61.2528 4.23526-1.7551 6.76024h-.1755l-2.1939-6.76024h-2.5449l-2.1939 6.76024h-.1755l-1.7551-6.76024h-2.7204l2.9837 9.61084h2.8959l2.1939-6.51581h.0877l2.1939 6.51581h2.8959l2.896-9.61084z"/><path d="m71.9593 4.23534v1.22172h-.1755c-.351-.48869-.7898-.81448-1.4041-1.14027-.5265-.24435-1.1408-.40724-1.7551-.40724s-1.3163.08144-1.9306.32579c-.6143.24434-1.1408.65158-1.5796 1.05882-.8775.97738-1.3163 2.1991-1.3163 3.66517s.4388 2.68777 1.3163 3.58367c.4388.4887.9653.8145 1.5796 1.0589.6143.2443 1.2286.3258 1.9306.3258.7898 0 1.4919-.1629 2.1939-.5702.351-.2443.7021-.5701.9653-.8959h.1755v1.3846h2.5449v-9.61086zm-.702 6.92306c-.2633.2444-.5266.4887-.8776.6516s-.702.2444-1.1408.1629c-1.6673 0-2.8082-1.1403-2.8082-2.85067 0-1.71041 1.1409-2.93214 2.7205-2.93214 1.6673 0 2.8081 1.14028 2.8081 2.93214.0878.73303-.1755 1.46607-.702 2.03617z"/><path d="m83.2799 4.23526-2.5449 6.76024h-.1755l-2.5449-6.76024h-2.7204l3.8612 9.20364c.0878.2443.1755.4072.1755.6516 0 .2443-.0877.4887-.1755.6516-.351.733-.7898 1.1402-1.6673 1.1402h-1.0531v2.1177h1.3163c1.9306 0 3.0715-.8959 3.6858-2.5249l4.5632-11.23984z"/><path d="m37.208.162842h-2.5449v2.280548h2.5449z"/></g><path d="m20.5347 8.47061h-19.30613c-.17551 0-.351019 0-.438774-.08145-.17551-.08145-.263265-.16289-.438776-.24434-.087755-.08145-.17551-.24435-.2632649-.40724-.0877551-.08145-.0877551-.24435-.0877551-.40724 0-.1629 0-.3258.0877551-.40724.0877549-.1629.1755099-.3258.2632649-.40724.087755-.08145.263266-.1629.438776-.24435s.351024-.08145.438774-.08145h19.21833c.1755 0 .3511 0 .4388.08145.1755.08145.2633.1629.4388.24435.0877.08144.1755.24434.2633.40724.0877.16289.0877.32579.0877.40724 0 .16289 0 .32579-.0877.40724-.0878.16289-.1756.24434-.2633.40724-.0878.08145-.2633.16289-.4388.24434-.0877 0-.1755.08145-.351.08145z" fill="#2be2c7"/><path d="m16.7612 14.6606h-11.75919c-.17551 0-.35102 0-.43878-.0814-.17551-.0815-.26326-.1629-.43877-.2443-.08776-.0815-.17551-.2444-.26327-.4073-.08775-.1629-.08775-.3258-.08775-.4072 0-.1629 0-.3258.08775-.4073.08776-.0814.17551-.2443.26327-.4072.08775-.0815.26326-.1629.43877-.2444.17551-.0814.35102-.0814.43878-.0814h11.67139c.2633 0 .6143.1629.7898.3258.1755.2443.3511.4887.3511.733 0 .2444-.0878.5702-.3511.7331-.1755.3257-.4387.4886-.702.4886z" fill="#2be2c7"/><path d="m16.7612 2.1991h-11.75919c-.17551 0-.35102 0-.43878-.08145-.17551 0-.26326-.08145-.43877-.16289-.08776-.1629-.17551-.24435-.26327-.40725-.08775-.16289-.08775-.32579-.08775-.40724 0-.08144 0-.325789.08775-.407237.08776-.081448.17551-.244344.26327-.40724.17551-.162897.26326-.2443449.43877-.2443449.17551-.0814481.35102-.0814481.43878-.0814481h11.67139c.2633 0 .6143.162896.7898.325793.1755.244344.3511.488688.3511.733037 0 .24434-.0878.57013-.2633.81448-.2633.24434-.5265.32579-.7898.32579z" fill="#2be2c7"/></svg>
