<svg xmlns="http://www.w3.org/2000/svg" fill="none" viewBox="0 0 100 22" height="22" width="100">
<path fill="#010101" d="M5.60141 17.0286C6.01959 17.781 6.53117 18.4658 7.11781 19.0691L3.58869 21.9782L2.07617 19.9352L5.60141 17.0286Z"></path>
<path fill="#010101" d="M39.8353 5.50232C43.4039 5.50235 45.5408 8.07306 45.5408 11.9742C45.5407 15.8527 43.4039 18.3783 39.8353 18.3783C38.5533 18.3783 37.4845 17.9278 36.6939 17.138V21.4544C36.6939 21.7024 36.5015 21.9058 36.2665 21.9058H33.2749C33.0398 21.9058 32.8477 21.7024 32.8477 21.4544V6.31389C32.8477 6.0659 33.0398 5.86314 33.2749 5.86313H36.2665C36.5015 5.86313 36.6939 6.06589 36.6939 6.31389V6.76497C37.4846 5.95358 38.5532 5.50232 39.8353 5.50232ZM39.1941 9.11036C37.6771 9.11042 36.694 10.2376 36.6939 11.9514C36.6939 13.6654 37.6771 14.7702 39.1941 14.7702C40.7114 14.7702 41.6945 13.6655 41.6945 11.9514C41.6944 10.2376 40.7114 9.11036 39.1941 9.11036Z" clip-rule="evenodd" fill-rule="evenodd"></path>
<path fill="#010101" d="M25.0884 19.723L23.6097 21.7942L20.0391 18.9542C20.1447 18.8416 20.2477 18.7258 20.3487 18.607C20.8027 18.0726 21.1919 17.4941 21.5179 16.8838L25.0884 19.723Z"></path>
<path fill="#010101" d="M13.1522 5.07387C16.8435 4.85999 20.0197 7.86106 20.2215 11.7611C20.3195 13.6506 19.7138 15.467 18.517 16.8763C17.3199 18.2852 15.6749 19.1179 13.8844 19.221C10.1876 19.4345 7.01691 16.4342 6.8148 12.5338C6.61303 8.63329 9.45608 5.28681 13.1522 5.07387Z"></path>
<path fill="#010101" d="M75.6612 2.25519C75.8963 2.25519 76.0888 2.45825 76.0888 2.70627V5.86322H79.0804C79.3153 5.86322 79.5077 6.06602 79.5078 6.31399V8.56908C79.5078 8.81711 79.3154 9.02017 79.0804 9.02017H76.0888V12.6056C76.0888 15.0636 77.4138 15.0415 79.4864 14.6131C79.7431 14.5677 79.9994 14.7254 79.9994 14.9959L80.0424 17.4992C80.0423 17.657 79.9564 17.8147 79.8071 17.8824C79.1017 18.198 78.1189 18.401 77.0933 18.401C73.909 18.401 72.2424 16.4164 72.2424 12.6056V9.02017H70.4685C70.2334 9.02016 70.0413 8.81711 70.0413 8.56908V6.31399C70.0413 6.06603 70.2335 5.86323 70.4685 5.86322H72.2424V2.70627C72.2424 2.45826 72.4345 2.25521 72.6696 2.25519H75.6612Z"></path>
<path fill="#010101" d="M53.0773 5.50232C56.9027 5.50233 59.424 8.02796 59.424 11.9065C59.4239 15.8075 56.9026 18.3783 53.0773 18.3783C49.2522 18.3783 46.7306 15.8076 46.7306 11.9065C46.7306 8.02796 49.2522 5.50232 53.0773 5.50232ZM53.0773 9.11036C51.5602 9.11036 50.5769 10.2152 50.5769 11.9291C50.577 13.643 51.5602 14.7702 53.0773 14.7702C54.5946 14.7702 55.5776 13.643 55.5776 11.9291C55.5776 10.2152 54.5946 9.11036 53.0773 9.11036Z" clip-rule="evenodd" fill-rule="evenodd"></path>
<path fill="#010101" d="M93.0126 5.50232C94.295 5.50236 95.3631 5.95349 96.1535 6.74264V6.31389C96.1535 6.06591 96.3463 5.86315 96.5815 5.86313H99.5728C99.808 5.86313 100 6.06589 100 6.31389V17.589C100 17.8371 99.808 18.0401 99.5728 18.0401H96.5815C96.3454 18.0401 96.1535 17.8371 96.1535 17.589V17.1157C95.3631 17.9277 94.295 18.3782 93.0126 18.3783C89.4436 18.3783 87.3068 15.8076 87.3068 11.9065C87.3068 8.02796 89.4436 5.50232 93.0126 5.50232ZM93.6534 9.11036C92.1366 9.11036 91.1533 10.2152 91.1533 11.9291C91.1533 13.643 92.1366 14.7702 93.6534 14.7702C95.1711 14.7702 96.1535 13.643 96.1535 11.9291C96.1535 10.2152 95.1711 9.11036 93.6534 9.11036Z" clip-rule="evenodd" fill-rule="evenodd"></path>
<path fill="#010101" d="M85.1697 5.86316C85.4047 5.86316 85.5968 6.06595 85.5969 6.31392V17.5891C85.5969 17.8371 85.4047 18.0402 85.1697 18.0402H82.1777C81.9427 18.0402 81.7502 17.8371 81.7502 17.5891V6.31392C81.7503 6.06595 81.9427 5.86316 82.1777 5.86316H85.1697Z"></path>
<path fill="#010101" d="M68.4348 5.52466C68.6912 5.50211 68.8837 5.70518 68.8837 5.97574V9.11036C68.8836 9.3583 68.6911 9.56142 68.4348 9.56142C65.9559 9.62909 64.8874 10.3054 64.8874 11.9291V17.5668C64.8873 17.8147 64.6953 18.0175 64.4602 18.0175H61.4686C61.2336 18.0175 61.0412 17.8147 61.0411 17.5668V6.3139C61.0411 6.06591 61.2336 5.86313 61.4686 5.86313H64.4602C64.6953 5.86315 64.8874 6.06592 64.8874 6.3139V7.0808C65.7848 6.15636 66.9818 5.61487 68.4348 5.52466Z"></path>
<path fill="#010101" d="M4.38937 13.041C4.46722 13.9252 4.65665 14.7721 4.94203 15.5676L0.583914 16.6292L0.03125 14.103L4.38937 13.041Z"></path>
<path fill="#010101" d="M27.0353 13.8543L26.5244 16.3906L22.1543 15.4105C22.43 14.5977 22.5997 13.7454 22.6605 12.8728L27.0353 13.8543Z"></path>
<path fill="#010101" d="M4.88454 8.88553C4.61076 9.68953 4.43767 10.5412 4.37571 11.4225L0 10.4411L0.510633 7.90442L4.88454 8.88553Z"></path>
<path fill="#010101" d="M27.0048 10.1921L22.6462 11.2538C22.569 10.3703 22.381 9.52279 22.0956 8.72692L26.4525 7.66559L27.0048 10.1921Z"></path>
<path fill="#010101" d="M7.00278 5.34336C6.4256 5.9592 5.92899 6.65688 5.52455 7.41444L1.94922 4.57174L3.42806 2.50098L7.00278 5.34336Z"></path>
<path fill="#010101" d="M24.9584 4.36017L21.4319 7.26735C21.0138 6.51525 20.5043 5.8282 19.918 5.2249L23.4456 2.31677L24.9584 4.36017Z"></path>
<path fill="#010101" d="M85.2779 0C85.5128 5.78466e-05 85.705 0.203085 85.705 0.451397V3.29221C85.705 3.54053 85.5128 3.74324 85.2779 3.74329H82.0721C81.8371 3.74329 81.6447 3.54055 81.6447 3.29221V0.451397C81.6447 0.203049 81.8371 0 82.0721 0H85.2779Z"></path>
</svg>
