<?xml version="1.0" encoding="UTF-8" standalone="no"?>
<svg
   width="134"
   height="25"
   fill="none"
   version="1.1"
   id="svg6"
   sodipodi:docname="rulebase.svg"
   inkscape:version="1.4.3 (1:1.4.3+202512261034+0d15f75042)"
   xmlns:inkscape="http://www.inkscape.org/namespaces/inkscape"
   xmlns:sodipodi="http://sodipodi.sourceforge.net/DTD/sodipodi-0.dtd"
   xmlns="http://www.w3.org/2000/svg"
   xmlns:svg="http://www.w3.org/2000/svg">
  <defs
     id="defs6" />
  <sodipodi:namedview
     id="namedview6"
     pagecolor="#505050"
     bordercolor="#eeeeee"
     borderopacity="1"
     inkscape:showpageshadow="0"
     inkscape:pageopacity="0"
     inkscape:pagecheckerboard="0"
     inkscape:deskcolor="#505050"
     inkscape:zoom="2.8656716"
     inkscape:cx="125.79948"
     inkscape:cy="44.143229"
     inkscape:window-width="1920"
     inkscape:window-height="1080"
     inkscape:window-x="0"
     inkscape:window-y="0"
     inkscape:window-maximized="1"
     inkscape:current-layer="svg6" />
  <path
     fill="#fff"
     fill-rule="evenodd"
     d="M6.527 8.952A1.8 1.8 0 0 0 6 10.225v4.55c0 .485.196.949.543 1.288l1.971 1.925a1.8 1.8 0 0 0 1.258.512h4.464a1.8 1.8 0 0 0 1.276-.53l1.964-1.975a1.8 1.8 0 0 0 .524-1.27v-4.512a1.8 1.8 0 0 0-.527-1.273L15.56 7.027a1.8 1.8 0 0 0-1.273-.527H9.725a1.8 1.8 0 0 0-1.273.527L6.527 8.952ZM8.904 7.7c-.941 0-1.704.763-1.704 1.704v6.192c0 .941.763 1.704 1.704 1.704h6.192c.941 0 1.704-.763 1.704-1.704V9.404c0-.941-.763-1.704-1.704-1.704H8.904Z"
     clip-rule="evenodd"
     id="path2"
     style="fill:#ffffff;fill-opacity:1" />
  <path
     fill="#fff"
     d="M13.5 12.5a1.5 1.5 0 1 1-3 0 1.5 1.5 0 0 1 3 0Z"
     id="path3"
     style="fill:#ffffff;fill-opacity:1" />
  <path
     stroke="#ffffff"
     d="M 6.527,8.952 C 6.1894598,9.2896504 5.9998898,9.7475681 6,10.225 v 4.55 c 0,0.485 0.196,0.949 0.543,1.288 l 1.971,1.925 c 0.3363853,0.328394 0.7878963,0.512157 1.258,0.512 h 4.464 c 0.478903,1.12e-4 0.938107,-0.190623 1.276,-0.53 l 1.964,-1.975 C 17.811706,15.657595 18.000112,15.200963 18,14.725 V 10.213 C 18.00011,9.7355681 17.81054,9.2776504 17.473,8.94 L 15.56,7.027 C 15.22235,6.6894598 14.764432,6.4998898 14.287,6.5 H 12.802409 9.725 C 9.2475681,6.4998898 8.7896504,6.6894598 8.452,7.027 Z M 8.904,7.7 C 7.963,7.7 7.2,8.463 7.2,9.404 v 6.192 c 0,0.941 0.763,1.704 1.704,1.704 h 6.192 c 0.941,0 1.704,-0.763 1.704,-1.704 V 9.404 C 16.8,8.463 16.037,7.7 15.096,7.7 Z"
     clip-rule="evenodd"
     id="path4"
     sodipodi:nodetypes="ccscccccccccccccccsssssssss"
     style="stroke:#ffffff;stroke-opacity:1" />
  <path
     stroke="#fff"
     d="M13.5 12.5a1.5 1.5 0 1 1-3 0 1.5 1.5 0 0 1 3 0Z"
     id="path5"
     style="stroke:#ffffff;stroke-opacity:1" />
  <path
     fill="#ffffff"
     d="M32 20.504c.576-.064.992-.176 1.248-.336.256-.176.384-.512.384-1.008V7.352c0-.512-.128-.848-.384-1.008-.256-.16-.672-.272-1.248-.336V4.976h6.672c1.056 0 2 .192 2.832.576.848.384 1.512.912 1.992 1.584s.72 1.432.72 2.28c0 .96-.288 1.816-.864 2.568-.56.736-1.336 1.296-2.328 1.68a3.06 3.06 0 0 1 1.056.792c.288.32.536.736.744 1.248l1.344 3.216c.208.48.472.856.792 1.128.336.256.784.408 1.344.456v1.032h-3.288l-2.184-5.184c-.32-.768-.712-1.328-1.176-1.68-.464-.368-1.016-.552-1.656-.552h-2.304v5.04c0 .512.128.848.384 1.008.256.16.672.272 1.248.336v1.032H32v-1.032Zm6.6-7.656c.976 0 1.752-.28 2.328-.84.576-.576.864-1.336.864-2.28 0-1.056-.344-1.896-1.032-2.52-.672-.64-1.576-.96-2.712-.96h-2.352v6.6H38.6Zm13.326 8.976c-.656 0-1.256-.16-1.8-.48a3.554 3.554 0 0 1-1.248-1.368c-.304-.576-.456-1.224-.456-1.944v-6.264c0-.336-.136-.592-.408-.768-.256-.176-.712-.296-1.368-.36v-.936l3.432-.624h.36v8.256c0 .768.216 1.376.648 1.824.432.448 1.008.672 1.728.672.704 0 1.368-.144 1.992-.432.64-.288 1.152-.68 1.536-1.176v-6.456c0-.336-.128-.592-.384-.768-.256-.176-.696-.296-1.32-.36v-.936l3.36-.624h.36v9.84c0 .56.168.952.504 1.176.336.208.856.344 1.56.408v.768l-3.648.552h-.432v-2.472a5.948 5.948 0 0 1-1.968 1.824c-.784.432-1.6.648-2.448.648Zm9.908-1.32c.608-.064 1.048-.176 1.32-.336.288-.176.432-.512.432-1.008V5.168l-1.632-.48v-.672l3.264-.84h.384V19.16c0 .512.136.848.408 1.008.272.16.712.272 1.32.336v1.032h-5.496v-1.032Zm11.99 1.32c-1.072 0-2.016-.264-2.832-.792-.816-.544-1.448-1.288-1.896-2.232-.432-.944-.648-2.016-.648-3.216 0-1.248.24-2.368.72-3.36.48-1.008 1.144-1.792 1.992-2.352a4.928 4.928 0 0 1 2.832-.864c1.504 0 2.664.52 3.48 1.56.832 1.04 1.296 2.44 1.392 4.2h-8.4v.264c0 1.04.184 1.92.552 2.64.384.72.88 1.264 1.488 1.632a4.082 4.082 0 0 0 2.04.528c.784 0 1.512-.192 2.184-.576.672-.4 1.248-.96 1.728-1.68l.456.312c-.416 1.184-1.04 2.136-1.872 2.856-.832.72-1.904 1.08-3.216 1.08Zm2.784-8.28c-.128-.976-.448-1.744-.96-2.304a2.395 2.395 0 0 0-1.872-.84c-.816 0-1.504.28-2.064.84-.544.544-.912 1.312-1.104 2.304h6Zm9.874 8.28c-.912 0-1.856-.136-2.832-.408-.96-.288-1.688-.632-2.184-1.032V5.168l-1.632-.48v-.672l3.264-.84h.384v7.752c1.088-1.28 2.36-1.92 3.816-1.92.944 0 1.792.272 2.544.816.752.528 1.336 1.264 1.752 2.208.416.944.624 2 .624 3.168 0 1.248-.24 2.376-.72 3.384s-1.16 1.8-2.04 2.376c-.864.576-1.856.864-2.976.864Zm.264-1.272c1.04 0 1.856-.424 2.448-1.272.608-.864.912-2.016.912-3.456 0-1.488-.328-2.672-.984-3.552-.656-.88-1.568-1.32-2.736-1.32-.528 0-1.048.088-1.56.264-.512.176-.96.424-1.344.744v5.856c0 .832.296 1.496.888 1.992.592.496 1.384.744 2.376.744Zm10.752 1.272c-.976 0-1.784-.288-2.424-.864-.64-.592-.96-1.36-.96-2.304 0-.832.288-1.528.864-2.088.592-.576 1.528-1.056 2.808-1.44l3.816-1.152V12.92c0-.768-.224-1.376-.672-1.824-.448-.464-1.048-.696-1.8-.696-.72 0-1.32.216-1.8.648-.464.416-.712.984-.744 1.704v.528h-2.112v-.384c0-.736.216-1.4.648-1.992.432-.592 1.008-1.056 1.728-1.392.72-.336 1.512-.504 2.376-.504.848 0 1.6.16 2.256.48.672.32 1.192.76 1.56 1.32.384.56.576 1.192.576 1.896v6.168c0 .464.08.808.24 1.032.16.208.408.312.744.312s.656-.104.96-.312l.312.6c-.512.88-1.216 1.32-2.112 1.32-.64 0-1.144-.2-1.512-.6-.368-.416-.576-.936-.624-1.56-1.296 1.44-2.672 2.16-4.128 2.16Zm.984-1.872c.544 0 1.096-.112 1.656-.336a4.976 4.976 0 0 0 1.464-.888v-3.72l-2.88.912c-.72.224-1.288.536-1.704.936-.4.384-.6.84-.6 1.368 0 .56.176.992.528 1.296.352.288.864.432 1.536.432Zm13.576 1.872a7.766 7.766 0 0 1-2.592-.456c-.848-.304-1.488-.688-1.92-1.152l-.072-2.712h1.104c.288.992.752 1.768 1.392 2.328.64.56 1.408.84 2.304.84.704 0 1.272-.168 1.704-.504.432-.352.648-.824.648-1.416 0-.48-.16-.896-.48-1.248-.304-.352-.72-.616-1.248-.792l-2.664-.96c-1.632-.576-2.448-1.6-2.448-3.072 0-.72.184-1.352.552-1.896.384-.56.904-.992 1.56-1.296.656-.32 1.4-.48 2.232-.48.752 0 1.48.128 2.184.384.72.24 1.288.552 1.704.936v2.76h-1.104c-.16-.928-.512-1.648-1.056-2.16-.528-.512-1.192-.768-1.992-.768-.656 0-1.184.168-1.584.504-.4.32-.6.744-.6 1.272 0 .448.144.832.432 1.152.288.32.696.576 1.224.768l2.688.96c.8.288 1.448.696 1.944 1.224s.744 1.192.744 1.992c0 .752-.2 1.416-.6 1.992-.4.576-.952 1.024-1.656 1.344-.704.304-1.504.456-2.4.456Zm11.829 0c-1.072 0-2.016-.264-2.832-.792-.816-.544-1.448-1.288-1.896-2.232-.432-.944-.648-2.016-.648-3.216 0-1.248.24-2.368.72-3.36.48-1.008 1.144-1.792 1.992-2.352a4.928 4.928 0 0 1 2.832-.864c1.504 0 2.664.52 3.48 1.56.832 1.04 1.296 2.44 1.392 4.2h-8.4v.264c0 1.04.184 1.92.552 2.64.384.72.88 1.264 1.488 1.632a4.082 4.082 0 0 0 2.04.528c.784 0 1.512-.192 2.184-.576.672-.4 1.248-.96 1.728-1.68l.456.312c-.416 1.184-1.04 2.136-1.872 2.856-.832.72-1.904 1.08-3.216 1.08Zm2.784-8.28c-.128-.976-.448-1.744-.96-2.304a2.395 2.395 0 0 0-1.872-.84c-.816 0-1.504.28-2.064.84-.544.544-.912 1.312-1.104 2.304h6Z"
     id="path6" />
</svg>
