<?xml version="1.0" standalone="no"?>
<!DOCTYPE svg PUBLIC "-//W3C//DTD SVG 20010904//EN"
 "http://www.w3.org/TR/2001/REC-SVG-20010904/DTD/svg10.dtd">
<svg version="1.0" xmlns="http://www.w3.org/2000/svg"
 width="260.000000pt" height="260.000000pt" viewBox="0 0 260.000000 260.000000"
 preserveAspectRatio="xMidYMid meet">
<metadata>
Created by potrace 1.14, written by Peter Selinger 2001-2017
</metadata>
<g transform="translate(0.000000,260.000000) scale(0.100000,-0.100000)"
fill="#000000" stroke="none">
<path d="M1235 2489 c-3 -4 -14 -5 -25 -2 -11 3 -20 1 -20 -4 0 -6 -19 -9 -41
-9 -23 1 -43 -4 -46 -10 -2 -7 -18 -11 -34 -10 -16 1 -35 -4 -40 -11 -6 -7
-15 -10 -20 -7 -5 3 -9 1 -9 -5 0 -5 -9 -8 -20 -6 -11 2 -20 0 -20 -6 0 -5 -6
-9 -13 -9 -19 0 -67 -24 -67 -33 0 -5 -4 -5 -10 -2 -5 3 -10 1 -10 -5 0 -6 -4
-9 -9 -5 -5 3 -12 1 -16 -5 -4 -6 -10 -8 -15 -5 -4 3 -11 -2 -14 -11 -4 -9
-13 -14 -22 -10 -8 3 -12 2 -9 -4 3 -6 -1 -10 -9 -10 -9 0 -25 -9 -36 -20 -11
-11 -22 -20 -25 -20 -5 0 -46 -34 -76 -62 -9 -9 -19 -15 -21 -14 -2 2 -35 -30
-75 -71 -39 -40 -68 -73 -65 -73 4 0 -2 -7 -12 -15 -11 -8 -16 -15 -10 -15 5
0 2 -6 -7 -13 -19 -14 -44 -58 -41 -70 1 -5 -2 -6 -8 -2 -9 6 -35 -41 -32 -57
1 -5 -2 -8 -7 -8 -5 0 -15 -16 -21 -35 -6 -19 -15 -33 -19 -31 -4 3 -8 0 -9
-7 -1 -18 -8 -39 -21 -72 -27 -66 -42 -116 -36 -125 3 -6 2 -10 -3 -10 -5 0
-9 -6 -10 -12 0 -7 -3 -24 -7 -38 -3 -14 -7 -41 -9 -61 -2 -20 -6 -41 -8 -45
-9 -16 2 -339 12 -339 1 0 3 -9 4 -20 1 -11 6 -38 10 -60 4 -22 7 -40 5 -40
-1 0 4 -11 11 -25 8 -14 16 -36 18 -50 2 -14 7 -29 13 -34 5 -6 9 -18 9 -28 0
-10 5 -18 11 -18 5 0 7 -5 4 -10 -3 -6 -1 -10 4 -10 6 0 10 -3 10 -7 -3 -15
23 -73 33 -73 5 0 6 -4 3 -10 -3 -5 -3 -10 2 -10 4 0 17 -19 28 -41 10 -23 25
-44 32 -46 7 -3 13 -10 13 -17 0 -6 14 -25 30 -43 17 -18 30 -37 30 -42 0 -6
7 -11 16 -11 8 0 12 -4 9 -10 -3 -5 1 -10 9 -10 9 0 16 -7 16 -15 0 -8 5 -15
11 -15 5 0 7 -5 3 -12 -4 -6 -3 -8 4 -4 6 3 18 -4 26 -16 9 -12 16 -18 16 -13
0 6 5 2 11 -7 5 -10 17 -18 25 -18 8 0 12 -5 9 -10 -3 -6 -1 -10 4 -10 6 0 22
-10 37 -23 14 -12 28 -21 31 -19 2 2 12 -5 21 -15 9 -10 43 -32 74 -48 32 -17
58 -34 58 -38 0 -5 4 -6 9 -2 5 3 12 1 16 -5 3 -5 15 -10 26 -10 10 0 19 -5
19 -11 0 -5 4 -8 8 -5 5 3 19 -1 33 -8 13 -7 30 -11 37 -8 6 2 12 0 12 -5 0
-6 6 -10 13 -11 55 -8 87 -15 87 -21 0 -3 16 -7 36 -8 20 -1 42 -7 49 -13 10
-8 15 -8 20 0 4 7 11 7 18 2 14 -11 297 -9 315 1 6 5 12 6 12 3 0 -2 26 2 57
9 32 7 61 11 65 9 5 -3 8 0 8 7 0 7 3 9 7 6 3 -4 12 -2 20 4 7 6 13 9 13 5 0
-7 73 19 112 40 15 8 31 15 35 15 15 0 93 43 93 51 0 4 9 8 20 8 11 0 20 5 20
12 0 6 3 9 6 6 3 -3 19 7 36 23 17 15 34 26 38 24 4 -2 13 4 22 13 26 30 68
62 80 62 6 0 9 2 6 5 -3 3 19 32 49 63 31 31 69 76 86 100 17 23 33 42 37 42
4 0 7 7 7 15 0 8 -4 12 -8 10 -4 -3 -10 2 -13 11 -3 8 -10 12 -16 9 -5 -3 -10
-2 -10 2 0 5 -26 22 -57 38 -32 17 -60 32 -63 35 -3 3 -12 5 -20 5 -8 0 -17 3
-20 7 -10 13 -64 20 -165 23 -76 2 -111 -2 -147 -15 -27 -10 -48 -17 -48 -15
0 2 -44 -19 -97 -46 -54 -27 -108 -49 -120 -49 -13 0 -23 -4 -23 -8 0 -5 -6
-9 -12 -10 -7 -1 -35 -4 -63 -8 -54 -8 -207 -9 -240 -1 -11 2 -35 8 -53 12
-18 4 -35 11 -38 16 -2 4 -11 6 -19 2 -8 -3 -15 0 -15 6 0 6 -3 10 -7 9 -13
-3 -93 36 -93 45 0 4 -4 6 -9 3 -5 -3 -11 1 -15 9 -3 8 -10 15 -16 15 -12 0
-36 19 -104 83 -28 26 -47 47 -42 47 4 0 -6 14 -24 30 -18 17 -26 30 -19 30
10 0 11 2 2 8 -17 11 -74 122 -67 133 3 5 0 9 -6 9 -7 0 -10 6 -7 14 3 7 1 18
-3 22 -5 5 -10 28 -12 52 -2 23 -5 42 -8 42 -3 0 -5 42 -4 93 1 50 3 92 4 92
1 0 4 14 6 30 7 45 44 154 55 161 5 3 7 9 5 13 -3 4 3 17 12 27 10 10 18 22
18 25 -1 8 36 59 56 77 9 9 15 19 12 23 -2 4 5 10 16 14 11 4 18 11 15 16 -4
5 -1 9 4 9 6 0 19 8 29 18 35 33 67 57 97 72 17 8 33 19 36 23 3 5 12 10 20
11 8 2 28 9 44 16 48 20 118 37 147 36 14 -1 25 1 22 5 -5 8 167 9 181 1 5 -3
21 -7 35 -8 14 -1 36 -5 50 -9 14 -4 37 -9 52 -12 15 -3 25 -9 22 -14 -4 -7
18 -13 29 -8 1 1 26 -13 55 -30 29 -17 55 -31 57 -31 2 0 16 -5 32 -12 15 -6
31 -12 36 -13 4 -2 8 -3 10 -4 2 -3 29 -8 62 -13 11 -2 26 -8 34 -12 9 -6 12
-5 8 1 -4 7 3 10 18 9 14 0 25 -5 25 -9 0 -5 5 -5 12 -1 6 4 25 9 42 10 30 3
65 9 96 16 8 2 25 9 36 16 12 6 24 8 28 5 3 -3 6 0 6 7 0 7 3 11 6 7 3 -3 32
10 64 29 32 19 63 34 68 34 5 0 12 7 16 15 3 8 1 15 -5 15 -6 0 -7 5 -4 10 3
6 1 10 -4 10 -6 0 -11 6 -11 14 0 8 -7 17 -16 20 -8 3 -13 10 -9 15 3 5 -4 12
-15 16 -11 4 -18 10 -15 15 2 4 -12 22 -32 39 -20 17 -32 31 -27 31 5 0 -3 8
-19 18 -15 10 -24 22 -20 25 3 4 0 7 -8 7 -8 0 -20 9 -27 20 -7 11 -17 20 -22
20 -6 0 -24 13 -39 29 -16 16 -31 28 -34 25 -2 -2 -10 2 -17 11 -7 8 -19 15
-26 15 -8 0 -14 4 -14 8 0 9 -37 29 -54 30 -5 0 -12 4 -15 9 -8 11 -63 37 -73
35 -5 -1 -8 2 -8 6 0 10 -177 68 -197 66 -7 -1 -13 1 -13 5 0 4 -10 7 -22 6
-13 -1 -28 1 -33 6 -13 9 -4 9 -213 13 -90 1 -165 -1 -167 -5z"/>
</g>
</svg>
